<svg style="border-radius:12px;background:#0d0d14;" xmlns="http://www.w3.org/2000/svg" viewBox="0 0 53 53" shape-rendering="crispEdges"><defs>
  <linearGradient id="qrGrad" x1="0%" y1="0%" x2="100%" y2="100%">
    <stop offset="0%" style="stop-color:#8b5cf6;stop-opacity:1" />
    <stop offset="100%" style="stop-color:#ec4899;stop-opacity:1" />
  </linearGradient>
</defs><path fill="#ffffff" d="M0 0h53v53H0z"/><path stroke="#000000" d="M2 2.5h7m2 0h7m4 0h3m2 0h1m3 0h1m4 0h1m5 0h1m1 0h7M2 3.5h1m5 0h1m2 0h2m5 0h2m1 0h1m2 0h3m1 0h1m1 0h3m1 0h1m1 0h1m1 0h1m1 0h3m1 0h1m5 0h1M2 4.5h1m1 0h3m1 0h1m1 0h3m1 0h2m3 0h1m1 0h1m4 0h5m1 0h3m1 0h2m1 0h1m1 0h2m1 0h1m1 0h3m1 0h1M2 5.5h1m1 0h3m1 0h1m1 0h2m5 0h1m1 0h2m2 0h1m3 0h2m2 0h3m1 0h5m1 0h1m2 0h1m1 0h3m1 0h1M2 6.5h1m1 0h3m1 0h1m3 0h1m1 0h1m1 0h6m2 0h7m1 0h2m1 0h1m1 0h1m1 0h1m4 0h1m1 0h3m1 0h1M2 7.5h1m5 0h1m2 0h1m4 0h1m1 0h2m1 0h1m1 0h2m3 0h2m2 0h1m1 0h2m1 0h4m3 0h1m5 0h1M2 8.5h7m1 0h1m1 0h1m1 0h1m1 0h1m1 0h1m1 0h1m1 0h1m1 0h1m1 0h1m1 0h1m1 0h1m1 0h1m1 0h1m1 0h1m1 0h1m1 0h1m1 0h1m1 0h7M15 9.5h4m1 0h3m1 0h1m3 0h2m3 0h1m1 0h4m1 0h3M5 10.5h2m1 0h2m2 0h2m1 0h3m4 0h11m1 0h1m1 0h1m1 0h1m2 0h1m5 0h2M4 11.5h1m1 0h1m3 0h2m1 0h1m2 0h1m3 0h3m2 0h1m1 0h6m3 0h11m1 0h2M3 12.5h1m1 0h1m1 0h3m1 0h2m1 0h4m3 0h2m3 0h5m1 0h1m3 0h3m3 0h1m1 0h2m2 0h1m1 0h1M3 13.5h2m5 0h2m1 0h3m1 0h2m1 0h1m4 0h1m3 0h1m2 0h6m1 0h3m2 0h2m1 0h3M2 14.5h3m3 0h6m5 0h3m9 0h2m1 0h3m1 0h1m2 0h1m2 0h1m1 0h2m2 0h1M5 15.5h3m4 0h5m1 0h2m5 0h1m6 0h1m1 0h1m5 0h1m2 0h2m1 0h4M5 16.5h1m1 0h4m1 0h1m2 0h1m1 0h4m1 0h3m2 0h4m3 0h3m1 0h4m1 0h1m2 0h2m1 0h2M4 17.5h2m1 0h1m1 0h1m2 0h2m5 0h3m2 0h1m3 0h2m2 0h2m1 0h1m3 0h1m4 0h1m2 0h1m1 0h1M4 18.5h8m1 0h2m1 0h3m1 0h1m2 0h1m2 0h2m1 0h1m1 0h2m1 0h3m1 0h1m5 0h4M5 19.5h2m4 0h1m1 0h1m2 0h4m1 0h1m8 0h3m1 0h2m2 0h3m1 0h3m1 0h1M2 20.5h1m1 0h1m1 0h1m1 0h2m1 0h5m3 0h8m1 0h1m3 0h1m2 0h2m1 0h3m1 0h1m1 0h1m2 0h2m1 0h1M2 21.5h3m2 0h1m1 0h1m1 0h2m2 0h1m1 0h1m1 0h1m1 0h1m1 0h1m3 0h1m1 0h3m1 0h2m1 0h1m7 0h1m2 0h1m1 0h2M4 22.5h1m1 0h4m1 0h2m2 0h4m4 0h1m1 0h2m4 0h2m1 0h1m1 0h3m1 0h1m1 0h1m1 0h1m5 0h1M5 23.5h2m2 0h1m2 0h5m1 0h5m1 0h1m1 0h2m1 0h3m2 0h4m2 0h5m1 0h1m1 0h1M4 24.5h7m2 0h2m2 0h1m1 0h1m1 0h2m1 0h5m2 0h1m2 0h5m3 0h7m1 0h1M2 25.5h2m2 0h1m3 0h2m3 0h1m2 0h1m1 0h1m3 0h1m3 0h4m1 0h1m1 0h1m1 0h1m1 0h4m3 0h1m1 0h2M2 26.5h1m2 0h2m1 0h1m1 0h2m2 0h1m1 0h4m3 0h2m1 0h1m1 0h1m1 0h1m2 0h2m3 0h5m1 0h1m1 0h2m1 0h2M5 27.5h2m3 0h2m2 0h2m1 0h2m5 0h1m3 0h2m2 0h1m1 0h2m4 0h1m1 0h1m3 0h2m1 0h2M4 28.5h7m1 0h1m1 0h6m4 0h5m3 0h2m1 0h1m1 0h1m1 0h8m1 0h1m1 0h1M2 29.5h1m4 0h1m2 0h2m1 0h2m4 0h1m3 0h4m1 0h1m3 0h1m1 0h2m1 0h1m1 0h3m1 0h1m1 0h6M2 30.5h8m3 0h1m2 0h2m2 0h2m2 0h1m2 0h2m1 0h1m2 0h1m4 0h5m1 0h1m1 0h1m1 0h3M4 31.5h1m5 0h1m2 0h3m1 0h1m1 0h1m1 0h1m1 0h1m2 0h1m2 0h4m1 0h6m4 0h5M2 32.5h2m2 0h1m1 0h1m1 0h1m3 0h1m2 0h2m2 0h4m4 0h1m2 0h1m5 0h1m3 0h1m1 0h2m2 0h1m1 0h1M4 33.5h1m2 0h1m1 0h1m1 0h1m2 0h4m1 0h1m5 0h1m1 0h1m1 0h2m1 0h5m1 0h1m1 0h4m3 0h1m1 0h2M2 34.5h1m2 0h1m1 0h2m1 0h4m1 0h1m2 0h1m1 0h2m1 0h1m1 0h1m1 0h1m1 0h1m2 0h1m1 0h1m1 0h2m1 0h1m1 0h1m1 0h1m1 0h2m2 0h2M4 35.5h1m2 0h1m2 0h1m3 0h2m3 0h1m4 0h3m2 0h2m4 0h2m2 0h5m1 0h2M7 36.5h2m1 0h1m10 0h2m10 0h1m1 0h2m4 0h1m2 0h1m4 0h2M2 37.5h2m1 0h2m2 0h1m2 0h1m2 0h4m1 0h1m1 0h1m1 0h1m2 0h1m1 0h1m1 0h1m1 0h1m1 0h1m5 0h2m2 0h5M5 38.5h1m1 0h2m6 0h1m2 0h1m1 0h3m6 0h3m1 0h3m2 0h1m2 0h2m2 0h1m1 0h1m1 0h2M2 39.5h1m1 0h1m2 0h1m2 0h1m4 0h1m2 0h5m2 0h7m2 0h5m1 0h1m1 0h2m2 0h1m2 0h1M3 40.5h1m3 0h3m1 0h4m2 0h1m2 0h3m1 0h1m1 0h1m3 0h2m1 0h1m1 0h2m1 0h4m1 0h3m2 0h1m1 0h1M3 41.5h3m4 0h5m5 0h2m2 0h1m3 0h2m1 0h1m1 0h1m2 0h2m2 0h3m2 0h2m1 0h1M2 42.5h3m3 0h1m2 0h1m1 0h3m1 0h1m1 0h1m1 0h2m1 0h8m1 0h2m3 0h9M10 43.5h6m1 0h1m4 0h3m3 0h2m2 0h1m1 0h1m1 0h1m1 0h1m2 0h2m3 0h4M2 44.5h7m1 0h1m1 0h2m1 0h4m2 0h2m1 0h1m1 0h1m1 0h4m1 0h2m1 0h2m2 0h1m1 0h1m1 0h1m1 0h3m1 0h1M2 45.5h1m5 0h1m2 0h3m1 0h2m1 0h2m2 0h1m1 0h1m3 0h1m1 0h2m3 0h2m5 0h1m3 0h2M2 46.5h1m1 0h3m1 0h1m1 0h1m1 0h1m1 0h1m1 0h2m1 0h1m1 0h2m1 0h5m1 0h3m4 0h2m1 0h7m2 0h1M2 47.5h1m1 0h3m1 0h1m1 0h1m3 0h1m5 0h1m2 0h5m2 0h2m1 0h4m2 0h2m1 0h1m1 0h1m2 0h1m2 0h1M2 48.5h1m1 0h3m1 0h1m2 0h3m2 0h3m1 0h2m1 0h6m1 0h1m1 0h1m1 0h6m2 0h1m2 0h4m1 0h1M2 49.5h1m5 0h1m3 0h1m1 0h2m2 0h2m3 0h1m4 0h1m3 0h1m1 0h2m1 0h1m2 0h1m3 0h1m2 0h4M2 50.5h7m2 0h1m3 0h1m1 0h1m1 0h4m1 0h1m3 0h1m3 0h1m1 0h3m1 0h1m1 0h1m5 0h2m2 0h1"/></svg>
